# xmcd CD database file
#
# Track frame offsets:
#	150
#	24652
#	44257
#	66167
#	89157
#	107170
#	142315
#	155722
#	183517
#	196625
#	215815
#	251672
#	274775
#	299467
#
# Disc length: 4222 seconds
#
# Revision: 0
# Processed by: cddbd v1.5PL3 Copyright (c) Steve Scherf et al.
# Submitted via: CDex 1.51
#
DISCID=e4107c0e
DTITLE=Lena Jansson - Everything I Love
DYEAR=1993
DGENRE=Jazz
TTITLE0=Crazy he calls me
TTITLE1=Everithing I love
TTITLE2=Something cool
TTITLE3=S'poosin'
TTITLE4=The Island
TTITLE5=Morgon efter regn
TTITLE6=Jag vet en dejlig rosa
TTITLE7=Like a Lover
TTITLE8=Don't get around much anymore
TTITLE9=Straighten up and fly right
TTITLE10=I can't get started
TTITLE11=Too marvelous for Words
TTITLE12=You go to my Head
TTITLE13=Post festum
EXTD=YEAR: 1993
EXTT0=
EXTT1=
EXTT2=
EXTT3=
EXTT4=
EXTT5=
EXTT6=
EXTT7=
EXTT8=
EXTT9=
EXTT10=
EXTT11=
EXTT12=
EXTT13=
PLAYORDER=
